<?xml version="1.0" encoding="UTF-8"?>
<svg width="80px" height="76px" viewBox="0 0 80 76" version="1.1" xmlns="http://www.w3.org/2000/svg" xmlns:xlink="http://www.w3.org/1999/xlink">
    <title>Path</title>
    <g id="Page-1" stroke="none" stroke-width="1" fill="none" fill-rule="evenodd">
        <g id="overview" transform="translate(-645.000000, -4.000000)" fill="#FFFFFF" fill-rule="nonzero">
            <g id="Symbol_26_0_Layer0_0_FILL" transform="translate(645.000000, 0.000000)">
                <path d="M59.75,5.75 C54.85,4.58333333 48.2666667,4 40,4 C31.7,4 25.1166667,4.58333333 20.25,5.75 C15.0166667,7.01666667 10.9333333,9.1 8,12 C5.1,14.9333333 3.01666667,19.0166667 1.75,24.25 C0.716666667,28.65 0.15,34.4 0.05,41.5 C0.05,41.8333333 0.05,42.1666667 0.05,42.5 C0.15,49.6 0.716666667,55.35 1.75,59.75 C3.01666667,65.0166667 5.1,69.1 8,72 C10.9333333,74.9333333 15.0166667,77.0166667 20.25,78.25 C25.1166667,79.4166667 31.7,80 40,80 C48.2666667,80 54.85,79.4166667 59.75,78.25 C65.0166667,77.0166667 69.1,74.9333333 72,72 C74.9333333,69.1 77.0166667,65.0166667 78.25,59.75 C79.2833333,55.4166667 79.8666667,49.75 80,42.75 C80,42.65 80,42.5666667 80,42.5 L80,41.25 C79.8666667,34.25 79.2833333,28.5833333 78.25,24.25 C77.0166667,19.0166667 74.9333333,14.9333333 72,12 C69.1,9.1 65.0166667,7.01666667 59.75,5.75 Z" id="Path"></path>
            </g>
        </g>
    </g>
</svg>