<?xml version="1.0" encoding="UTF-8"?>
<svg width="50px" height="31px" viewBox="0 0 50 31" version="1.1" xmlns="http://www.w3.org/2000/svg" xmlns:xlink="http://www.w3.org/1999/xlink">
    <title>face_a</title>
    <g id="Page-1" stroke="none" stroke-width="1" fill="none" fill-rule="evenodd">
        <g id="overview" transform="translate(-5.000000, -595.000000)" fill-rule="nonzero">
            <g id="face_a" transform="translate(5.000000, 595.500000)">
                <g id="Symbol_91_0_Layer0_0_MEMBER_0_FILL" fill="#FFFFFF">
                    <path d="M2.95,3.45 C0.983333333,5.41666667 0,7.76666667 0,10.5 C0,13.2666667 0.983333333,15.6166667 2.95,17.55 C4.88333333,19.5166667 7.23333333,20.5 10,20.5 C12.7666667,20.5 15.1166667,19.5166667 17.05,17.55 C19.0166667,15.6166667 20,13.2666667 20,10.5 C20,7.76666667 19.0166667,5.41666667 17.05,3.45 C15.1166667,1.48333333 12.7666667,0.5 10,0.5 C7.23333333,0.5 4.88333333,1.48333333 2.95,3.45 Z" id="Path"></path>
                </g>
                <g id="Symbol_91_0_Layer0_0_MEMBER_1_FILL" transform="translate(4.000000, 4.000000)" fill="#3D465D">
                    <path d="M10.25,10.75 C11.4166667,9.58333333 12,8.16666667 12,6.5 C12,4.86666667 11.4166667,3.46666667 10.25,2.3 C9.08333333,1.1 7.66666667,0.5 6,0.5 C4.36666667,0.5 2.96666667,1.1 1.8,2.3 C0.6,3.46666667 0,4.86666667 0,6.5 C0,8.16666667 0.6,9.58333333 1.8,10.75 C2.96666667,11.9166667 4.36666667,12.5 6,12.5 C7.66666667,12.5 9.08333333,11.9166667 10.25,10.75 Z" id="Path"></path>
                </g>
                <g id="Symbol_91_0_Layer0_1_MEMBER_0_FILL" transform="translate(30.000000, 0.000000)" fill="#FFFFFF">
                    <path d="M2.95,3.45 C0.983333333,5.41666667 0,7.76666667 0,10.5 C0,13.2666667 0.983333333,15.6166667 2.95,17.55 C4.88333333,19.5166667 7.23333333,20.5 10,20.5 C12.7666667,20.5 15.1166667,19.5166667 17.05,17.55 C19.0166667,15.6166667 20,13.2666667 20,10.5 C20,7.76666667 19.0166667,5.41666667 17.05,3.45 C15.1166667,1.48333333 12.7666667,0.5 10,0.5 C7.23333333,0.5 4.88333333,1.48333333 2.95,3.45 Z" id="Path"></path>
                </g>
                <g id="Symbol_91_0_Layer0_1_MEMBER_1_FILL" transform="translate(34.000000, 4.000000)" fill="#3D465D">
                    <path d="M10.25,10.75 C11.4166667,9.58333333 12,8.16666667 12,6.5 C12,4.86666667 11.4166667,3.46666667 10.25,2.3 C9.08333333,1.1 7.66666667,0.5 6,0.5 C4.36666667,0.5 2.96666667,1.1 1.8,2.3 C0.6,3.46666667 0,4.86666667 0,6.5 C0,8.16666667 0.6,9.58333333 1.8,10.75 C2.96666667,11.9166667 4.36666667,12.5 6,12.5 C7.66666667,12.5 9.08333333,11.9166667 10.25,10.75 Z" id="Path"></path>
                </g>
                <g id="Symbol_91_0_Layer0_2_FILL" transform="translate(15.000000, 22.000000)" fill="#3D465D">
                    <path d="M18.2,4.95 L18.2,4.9 C18.6,4.6 18.9833333,4.3 19.35,4 C19.75,3.63333333 19.9666667,3.18333333 20,2.65 C20.0333333,2.08333333 19.8666667,1.6 19.5,1.2 C19.1333333,0.766666667 18.6833333,0.533333333 18.15,0.5 C17.5833333,0.466666667 17.1,0.633333333 16.7,1 C16.4333333,1.23333333 16.15,1.46666667 15.85,1.7 L15.8,1.7 C14.2,2.9 12.2666667,3.5 10,3.5 C7.66666667,3.5 5.68333333,2.9 4.05,1.7 C3.85,1.53333333 3.66666667,1.36666667 3.5,1.2 C3.13333333,0.766666667 2.68333333,0.533333333 2.15,0.5 C1.58333333,0.466666667 1.1,0.633333333 0.7,1 C0.266666667,1.36666667 0.0333333333,1.83333333 0,2.4 C-0.0333333333,2.93333333 0.133333333,3.41666667 0.5,3.85 C0.8,4.18333333 1.16666667,4.51666667 1.6,4.85 C1.63333333,4.85 1.65,4.86666667 1.65,4.9 C3.95,6.63333333 6.73333333,7.5 10,7.5 C13.2,7.5 15.9333333,6.65 18.2,4.95 Z" id="Path"></path>
                </g>
            </g>
        </g>
    </g>
</svg>