<?xml version="1.0" encoding="UTF-8"?>
<svg width="50px" height="22px" viewBox="0 0 50 22" version="1.1" xmlns="http://www.w3.org/2000/svg" xmlns:xlink="http://www.w3.org/1999/xlink">
    <title>face_a copy</title>
    <g id="Page-1" stroke="none" stroke-width="1" fill="none" fill-rule="evenodd">
        <g id="overview" transform="translate(-63.000000, -847.000000)" fill-rule="nonzero">
            <g id="face_a-copy" transform="translate(63.000000, 847.500000)">
                <g id="Symbol_91_0_Layer0_0_MEMBER_0_FILL" fill="#FFFFFF">
                    <path d="M2.95,3.45 C0.983333333,5.41666667 0,7.76666667 0,10.5 C0,13.2666667 0.983333333,15.6166667 2.95,17.55 C4.88333333,19.5166667 7.23333333,20.5 10,20.5 C12.7666667,20.5 15.1166667,19.5166667 17.05,17.55 C19.0166667,15.6166667 20,13.2666667 20,10.5 C20,7.76666667 19.0166667,5.41666667 17.05,3.45 C15.1166667,1.48333333 12.7666667,0.5 10,0.5 C7.23333333,0.5 4.88333333,1.48333333 2.95,3.45 Z" id="Path"></path>
                </g>
                <g id="Symbol_91_0_Layer0_0_MEMBER_1_FILL" transform="translate(4.000000, 4.000000)" fill="#3D465D">
                    <path d="M10.25,10.75 C11.4166667,9.58333333 12,8.16666667 12,6.5 C12,4.86666667 11.4166667,3.46666667 10.25,2.3 C9.08333333,1.1 7.66666667,0.5 6,0.5 C4.36666667,0.5 2.96666667,1.1 1.8,2.3 C0.6,3.46666667 0,4.86666667 0,6.5 C0,8.16666667 0.6,9.58333333 1.8,10.75 C2.96666667,11.9166667 4.36666667,12.5 6,12.5 C7.66666667,12.5 9.08333333,11.9166667 10.25,10.75 Z" id="Path"></path>
                </g>
                <g id="Symbol_91_0_Layer0_1_MEMBER_0_FILL" transform="translate(30.000000, 0.000000)" fill="#FFFFFF">
                    <path d="M2.95,3.45 C0.983333333,5.41666667 0,7.76666667 0,10.5 C0,13.2666667 0.983333333,15.6166667 2.95,17.55 C4.88333333,19.5166667 7.23333333,20.5 10,20.5 C12.7666667,20.5 15.1166667,19.5166667 17.05,17.55 C19.0166667,15.6166667 20,13.2666667 20,10.5 C20,7.76666667 19.0166667,5.41666667 17.05,3.45 C15.1166667,1.48333333 12.7666667,0.5 10,0.5 C7.23333333,0.5 4.88333333,1.48333333 2.95,3.45 Z" id="Path"></path>
                </g>
                <g id="Symbol_91_0_Layer0_1_MEMBER_1_FILL" transform="translate(34.000000, 4.000000)" fill="#3D465D">
                    <path d="M10.25,10.75 C11.4166667,9.58333333 12,8.16666667 12,6.5 C12,4.86666667 11.4166667,3.46666667 10.25,2.3 C9.08333333,1.1 7.66666667,0.5 6,0.5 C4.36666667,0.5 2.96666667,1.1 1.8,2.3 C0.6,3.46666667 0,4.86666667 0,6.5 C0,8.16666667 0.6,9.58333333 1.8,10.75 C2.96666667,11.9166667 4.36666667,12.5 6,12.5 C7.66666667,12.5 9.08333333,11.9166667 10.25,10.75 Z" id="Path"></path>
                </g>
            </g>
        </g>
    </g>
</svg>